# xmcd
#
# Track frame offsets:
#	150
#	18852
#	35084
#	48578
#	59110
#	73209
#	87984
#	105066
#	119501
#	136421
#
# Disc length: 2035 seconds
#
# Revision: 0
# Processed by: cddbd v1.5.2PL0 Copyright (c) Steve Scherf et al.
# Submitted via: EasyCDDAExtractor 2010.6.0.0
#
DISCID=8e07f10a
DTITLE=Antonio De Jesus
DYEAR=1983
DGENRE=Ballad
TTITLE0=Te Quiero Mas Y Mas
TTITLE1=Tu Y Yo
TTITLE2=Libertad
TTITLE3=En Busca De Tu Amor
TTITLE4=Estoy Enamorado
TTITLE5=Si O No
TTITLE6=Abandoname
TTITLE7=Juntos
TTITLE8=Madre
TTITLE9=Como Olvidar
EXTD=
EXTT0=
EXTT1=
EXTT2=
EXTT3=
EXTT4=
EXTT5=
EXTT6=
EXTT7=
EXTT8=
EXTT9=
PLAYORDER=
